<?xml version="1.0" encoding="utf-8"?>
<!-- Generator: Adobe Illustrator 19.0.0, SVG Export Plug-In . SVG Version: 6.00 Build 0)  -->
<svg version="1.1" id="Layer_1" xmlns="http://www.w3.org/2000/svg" xmlns:xlink="http://www.w3.org/1999/xlink" x="0px" y="0px"
	 viewBox="0 0 1400 980" style="enable-background:new 0 0 1400 980;" xml:space="preserve">
<style type="text/css">
	.st0{fill:#FFFFFF;}
	.st1{fill:#FCB341;}
	.st2{fill:#383754;}
	.st3{fill:none;stroke:#131429;stroke-width:6;stroke-miterlimit:10;}
	.st4{fill:#45466D;}
	.st5{font-family:'Pacifico-Regular';}
	.st6{font-size:63.6646px;}
	.st7{fill:#505050;}
	.st8{fill:none;stroke:#393754;stroke-width:8;stroke-miterlimit:10;}
	.st9{font-size:56.056px;}
	.st10{fill:none;stroke:#45466D;stroke-width:4;stroke-miterlimit:10;}
	.st11{fill:#F4A337;}
</style>
<rect id="XMLID_56_" class="st0" width="1400" height="980"/>
<g id="XMLID_39_">
	<path id="XMLID_16_" class="st1" d="M654.6,274.7c0-32.2-26.9-59.7-64.9-70.9c11.5,11.5,40.3,48.6-5.5,93.8
		c0,0-29.7,27.7-82.1,26.9c0,0-6.3,8.6-10.4,11.9c17,9.1,37.8,14.4,60.3,14.4c1.4,0,2.3,0,3.7,0c25.4,37.2,70.7,27.9,70.7,27.9
		c-24.8-13-28.3-35.9-28.3-35.9C631.6,330.4,654.6,304.5,654.6,274.7z"/>
	<path id="XMLID_168_" class="st2" d="M506,172c-56.8,0-102.9,34.1-102.9,76.3c0,29.9,23,55.7,56.6,68.2l0,0c0,0-3.4,23-28.3,35.9
		c0,0,45.3,9.3,70.7-27.9l0,0c1.4,0,2.3,0,3.7,0c56.8,0,102.9-34.1,102.9-76.3C608.8,206.1,562.8,172,506,172z"/>
	<circle id="XMLID_3_" class="st0" cx="467.3" cy="248.6" r="9.4"/>
	<circle id="XMLID_6_" class="st0" cx="505.6" cy="248.6" r="9.4"/>
	<circle id="XMLID_7_" class="st0" cx="544.6" cy="248.6" r="9.4"/>
	<path id="XMLID_9_" class="st3" d="M608.7,195"/>
</g>
<g id="XMLID_37_">
	<path id="XMLID_11_" class="st4" d="M756.2,326.8l-7.2,26.7c-4.1,15.1,7.3,30.1,23,30.1h80.9V252.8h0
		C807.7,252.8,768,283.1,756.2,326.8z"/>
	<path id="XMLID_23_" class="st2" d="M933.9,383.5c15.7,0,27.1-14.9,23-30.1l-7.2-26.7c-11.8-43.7-51.5-74-96.7-74h0v130.8H933.9z"
		/>
	<path id="XMLID_24_" class="st2" d="M960.6,221.3C919.8,200,852.9,200,852.9,200v31.6c24.2,0.4,51.8,8.1,64.8,12.1
		c3.5,1.1,6.1,4,6.9,7.4c4.4,3.7,14.2,11.2,28.7,17.9c14.3,6.7,30.2,8.8,36.2,9.4c0.5-1,0.9-2.1,1.2-3.3
		C993.5,260.4,986.1,234.6,960.6,221.3z"/>
	<path id="XMLID_25_" class="st4" d="M745.3,221.3c-25.5,13.3-32.9,39.1-30.1,53.9c0.2,1.2,0.6,2.2,1.2,3.2c6.2-0.6,22-2.8,36.3-9.4
		c15-7,24.9-15,28.9-18.6c1-3.2,3.4-5.7,6.7-6.8c13-4.1,40.6-11.8,64.8-12.1V200C852.9,200,786.1,200,745.3,221.3z"/>
	<circle id="XMLID_1_" class="st1" cx="852.9" cy="323.7" r="38.2"/>
	<g id="XMLID_8_">
		<path id="XMLID_10_" class="st0" d="M773.3,324.9L773.3,324.9c-1.6-0.6-2.4-2.4-1.7-4c14.6-36,42.7-48.3,52.1-51.5
			c1.7-0.6,3.5,0.4,3.9,2.1l0.7,2.8l-0.7-2.9l0,0.2c0.4,1.5-0.5,3-1.9,3.5c-8.4,3-34.9,14.7-48.5,48.1
			C776.5,324.7,774.8,325.4,773.3,324.9z"/>
	</g>
	<path id="XMLID_19_" class="st1" d="M716.3,278.5c1.9,3.6,5.7,5.9,10,6.1c10.7,0.3,31.1-2.2,51.1-21.5c2.5-2.4,3.8-5.7,3.6-9.1
		c0-1.2,0.1-2.3,0.4-3.4c-4,3.6-13.8,11.6-28.9,18.6C738.3,275.7,722.4,277.9,716.3,278.5z"/>
	<path id="XMLID_21_" class="st1" d="M953.4,269.1c-14.5-6.7-24.4-14.2-28.7-17.9c0.2,0.9,0.3,1.8,0.3,2.7c-0.1,3.4,1.2,6.8,3.6,9.1
		c20,19.3,40.4,21.8,51.1,21.5c4.2-0.1,8-2.5,10-6.1C983.6,277.9,967.7,275.8,953.4,269.1z"/>
	<path id="XMLID_14_" class="st0" d="M769.7,333.2c-3.9,0-3.9,6,0,6C773.6,339.2,773.6,333.2,769.7,333.2z"/>
</g>
<g id="XMLID_15_">
	<path id="XMLID_12_" class="st2" d="M309.7,834.7H144.4c-10.1,0-18.3-8.2-18.3-18.3v-107c0-7.9,6.4-14.3,14.3-14.3h173.4
		c7.9,0,14.3,6.4,14.3,14.3v107C328,826.5,319.8,834.7,309.7,834.7z"/>
	<path id="XMLID_13_" class="st1" d="M133,689.4l81-68.6c7.5-6.4,18.6-6.4,26.1,0l81,68.6c4.3,3.7,6.8,9.1,6.8,14.8l0,0l-100.9,78.5
		l-100.9-78.5l0,0C126.1,698.4,128.6,693,133,689.4z"/>
	<path id="XMLID_17_" class="st4" d="M129.9,827.6l85.5-71c6.8-5.6,16.6-5.6,23.3,0l85.5,71c0,0-4.6,7.1-14.5,7.1
		c-9.9,0-9.9,0-9.9,0H144.4C144.4,834.7,134.8,835.5,129.9,827.6z"/>
	<text id="XMLID_18_" transform="matrix(1 0 0 1 193.7873 712.3297)" class="st0 st5 st6">@</text>
</g>
<g id="XMLID_602_">
	<path id="XMLID_519_" class="st1" d="M633.3,836.8H494.7c-2.6,0-4.6-2.1-4.6-4.6V592.4c0-2.6,2.1-4.6,4.6-4.6h138.6
		c2.6,0,4.6,2.1,4.6,4.6v239.9C638,834.8,635.9,836.8,633.3,836.8z"/>
	<circle id="XMLID_520_" class="st4" cx="562.3" cy="814.1" r="12.3"/>
	<path id="XMLID_20_" class="st4" d="M624,604.8c0-2.5-2-4.6-4.6-4.6h-110c-2.5,0-4.6,2-4.6,4.6v181.8L624,606.4V604.8z"/>
	<path id="XMLID_22_" class="st2" d="M504.8,786.6v0.4c0,2.5,2,4.6,4.6,4.6h110c2.6,0,4.7-2.1,4.6-4.7V606.4L504.8,786.6z"/>
</g>
<g id="XMLID_28_">
	<path id="XMLID_32_" class="st1" d="M894.2,673.1L894.2,673.1c0-37.1-30.1-67.5-67.5-67.5c-37.1,0-67.5,30.1-67.5,67.5l0,0l0,0l0,0
		c0,20.3,9.1,38.6,23.6,51l43.6,94.9l43.6-94.9C885.1,712,894.2,693.8,894.2,673.1L894.2,673.1L894.2,673.1z"/>
	<g id="XMLID_29_">
		<path id="XMLID_31_" class="st4" d="M770.7,675.2c0,30.9,25.1,56.3,56.3,56.3V618.9C796.1,618.9,770.7,644.2,770.7,675.2z"/>
		<path id="XMLID_30_" class="st2" d="M827,618.9v112.6c30.9,0,56.3-25.1,56.3-56.3C883.3,644.2,858,618.9,827,618.9z"/>
	</g>
</g>
<g id="XMLID_36_">
	<path id="XMLID_38_" class="st4" d="M1217.9,600.6c-18.6-18.7-45.6-28.2-75.8-28.2s-57.7,9.6-76.3,28.2
		c-36.3,36.7-36.3,94.9-36.3,97.3h14.4c0-0.5-3.2-50.6,29.9-83.9c16.5-16.5,41.2-24.9,68.4-24.9s51.3,8.4,67.7,24.9
		c33,33.2,30.5,83.4,30.5,83.9h13.8C1254.3,695.4,1254.3,637.1,1217.9,600.6z"/>
	<g id="XMLID_48_">
		<path id="XMLID_49_" class="st7" d="M1111.1,834.9c-34,0-52.4-16.4-61.9-30.2c-10.4-15.2-12.5-30.5-12.5-31.2l5.6-0.7
			c0,0.1,2,14.7,11.7,28.9c12.9,18.8,32.7,28.1,58.9,27.7l0.1,5.6C1112.4,834.9,1111.7,834.9,1111.1,834.9z"/>
	</g>
	<path id="XMLID_47_" class="st1" d="M1131.8,838h-14.4c-3.5,0-6.4-2.8-6.4-6.4l0,0c0-3.5,2.8-6.4,6.4-6.4h14.4
		c3.5,0,6.4,2.8,6.4,6.4l0,0C1138.2,835.2,1135.2,838,1131.8,838z"/>
	<path id="XMLID_44_" class="st2" d="M1037.9,774.4h-2.3c-8.2,0-14.7-6.6-14.7-14.7v-49.9c0-8.2,6.6-14.7,14.7-14.7h2.3
		c8.2,0,14.7,6.6,14.7,14.7v49.9C1052.6,767.8,1046,774.4,1037.9,774.4z"/>
	<path id="XMLID_43_" class="st1" d="M1020.9,760.4h-0.3c-5.8,0-10.6-4.8-10.6-10.6v-30.2c0-5.8,4.8-10.6,10.6-10.6h0.3V760.4z"/>
	<path id="XMLID_35_" class="st2" d="M1245.9,774.4h2.3c8.2,0,14.7-6.6,14.7-14.7v-49.9c0-8.2-6.6-14.7-14.7-14.7h-2.3
		c-8.2,0-14.7,6.6-14.7,14.7v49.9C1231.2,767.8,1237.8,774.4,1245.9,774.4z"/>
	<path id="XMLID_34_" class="st1" d="M1262.9,760.4h0.3c5.8,0,10.6-4.8,10.6-10.6v-30.2c0-5.8-4.8-10.6-10.6-10.6h-0.3V760.4z"/>
	<circle id="XMLID_2_" class="st8" cx="1141.8" cy="689.7" r="52.5"/>
	<text id="XMLID_4_" transform="matrix(1 0 0 1 1111.0487 705.2343)" class="st1 st5 st9">24</text>
	<line id="XMLID_5_" class="st8" x1="1141.8" y1="638.5" x2="1141.8" y2="649.2"/>
	<line id="XMLID_26_" class="st8" x1="1193.2" y1="689.7" x2="1182.4" y2="689.7"/>
	<line id="XMLID_33_" class="st8" x1="1090.6" y1="690.9" x2="1101.3" y2="690.9"/>
	<line id="XMLID_27_" class="st8" x1="1141.8" y1="742.2" x2="1141.8" y2="731.5"/>
</g>
<g id="XMLID_54_">
	<circle id="XMLID_40_" class="st1" cx="215.5" cy="210.7" r="45"/>
	<path id="XMLID_50_" class="st4" d="M167.1,253.8c-21.7,19.4-42.5,57.4-42.5,131.7H215V267.1c-12.3,0-23.5-4.9-31.6-12.9
		C178.9,249.8,171.8,249.6,167.1,253.8z"/>
	<path id="XMLID_51_" class="st2" d="M246.7,254.1c-8.1,8-19.1,13-31.4,13v118.4h90.4c0-74.5-20.9-112.5-42.7-131.9
		C258.3,249.4,251.2,249.6,246.7,254.1z"/>
	<path id="XMLID_52_" class="st2" d="M215,267.1v118.4h0.3V267.1C215.2,267.1,215.1,267.1,215,267.1z"/>
	<path id="XMLID_41_" class="st2" d="M264.3,223.3h-0.8c-3.8,0-6.9-3.1-6.9-6.9v-17.2c0-3.8,3.1-6.9,6.9-6.9h0.8
		c3.8,0,6.9,3.1,6.9,6.9v17.2C271.2,220.2,268.1,223.3,264.3,223.3z"/>
	<path id="XMLID_45_" class="st10" d="M262.6,222.7c0,0-7,21.6-40.3,24.2"/>
	<path id="XMLID_42_" class="st4" d="M220.9,250h-7.4c-1.3,0-2.3-1-2.3-2.3v-2c0-1.3,1-2.3,2.3-2.3h7.4c1.3,0,2.3,1,2.3,2.3v2
		C223.2,249,222.2,250,220.9,250z"/>
</g>
<g id="XMLID_46_">
	<rect id="XMLID_60_" x="1092.1" y="249.1" class="st4" width="74.6" height="129.8"/>
	<rect id="XMLID_61_" x="1166.7" y="249.1" class="st2" width="74.6" height="129.8"/>
	<path id="XMLID_62_" class="st11" d="M1270,239.7l-94.1-111.9c-2.4-2.9-5.8-4.3-9.2-4.3v125.6h74.6h24.4
		C1270.5,249.1,1273.1,243.4,1270,239.7z"/>
	<path id="XMLID_63_" class="st1" d="M1166.7,123.5c-3.4,0-6.8,1.4-9.2,4.3l-94.1,111.9c-3.1,3.7-0.5,9.4,4.4,9.4h24.4h74.6V123.5z"
		/>
	<rect id="XMLID_53_" x="1143.5" y="302.5" class="st0" width="46.4" height="76.4"/>
	<g id="XMLID_55_">
		<path id="XMLID_57_" class="st0" d="M1112.5,204.7L1112.5,204.7c-1.3-1.1-1.4-3-0.3-4.2l47.8-56.1c1.1-1.3,3-1.4,4.2-0.3v0
			c1.3,1.1,1.4,3,0.3,4.2l-47.8,56.1C1115.6,205.7,1113.7,205.8,1112.5,204.7z"/>
	</g>
	<path id="XMLID_59_" class="st0" d="M1103.7,211.8c-3.9,0-3.9,6,0,6C1107.6,217.8,1107.6,211.8,1103.7,211.8z"/>
</g>
<g id="XMLID_58_">
	
		<image style="overflow:visible;" width="1055" height="413" id="XMLID_91_" xlink:href="10CE8C71.png"  transform="matrix(0.24 0 0 0.24 90.6434 369.3333)">
	</image>
</g>
<g id="XMLID_66_">
	
		<image style="overflow:visible;" width="1446" height="413" id="XMLID_89_" xlink:href="10CE8C73.png"  transform="matrix(0.24 0 0 0.24 680.2731 369.3333)">
	</image>
</g>
<g id="XMLID_65_">
	
		<image style="overflow:visible;" width="1302" height="413" id="XMLID_87_" xlink:href="10CE8C76.png"  transform="matrix(0.24 0 0 0.24 378.2104 369.3333)">
	</image>
</g>
<g id="XMLID_68_">
	
		<image style="overflow:visible;" width="1126" height="413" id="XMLID_94_" xlink:href="10CE8C77.png"  transform="matrix(0.24 0 0 0.24 93.9327 829.7374)">
	</image>
</g>
<g id="XMLID_69_">
	
		<image style="overflow:visible;" width="916" height="413" id="XMLID_97_" xlink:href="10CE8C72.png"  transform="matrix(0.24 0 0 0.24 454.1308 829.7374)">
	</image>
</g>
<g id="XMLID_71_">
	
		<image style="overflow:visible;" width="1205" height="413" id="XMLID_103_" xlink:href="10CE8C7D.png"  transform="matrix(0.24 0 0 0.24 1001.1328 829.7374)">
	</image>
</g>
<g id="XMLID_70_">
	
		<image style="overflow:visible;" width="863" height="413" id="XMLID_100_" xlink:href="10CE8C7E.png"  transform="matrix(0.24 0 0 0.24 723.2229 829.7374)">
	</image>
</g>
<g id="XMLID_67_">
	
		<image style="overflow:visible;" width="1173" height="413" id="XMLID_85_" xlink:href="10CE8C7F.png"  transform="matrix(0.24 0 0 0.24 1025.9827 369.3333)">
	</image>
</g>
</svg>
